<svg xmlns="http://www.w3.org/2000/svg" version="1.1"
    xmlns:xlink="http://www.w3.org/1999/xlink" width="512" height="512" x="0" y="0" viewBox="0 0 24 24" style="enable-background:new 0 0 512 512" xml:space="preserve" class="">
    <g>
        <linearGradient id="a" x1="3" x2="21" y1="12" y2="12" gradientUnits="userSpaceOnUse">
            <stop offset="0" stop-color="#ee0979"></stop>
            <stop offset="1" stop-color="#ff6a00"></stop>
        </linearGradient>
        <path fill="url(#a)" d="M4 7h16c.6 0 1-.4 1-1s-.4-1-1-1H4c-.6 0-1 .4-1 1s.4 1 1 1zm16 4H4c-.6 0-1 .4-1 1s.4 1 1 1h16c.6 0 1-.4 1-1s-.4-1-1-1zm0 6H4c-.6 0-1 .4-1 1s.4 1 1 1h16c.6 0 1-.4 1-1s-.4-1-1-1z" opacity="1" data-original="url(#a)" class=""></path>
    </g>
</svg>